<svg xmlns="http://www.w3.org/2000/svg" width="48" height="48" viewBox="0 0 48 48">
    <g fill="#FFF" fill-rule="nonzero">
        <path d="M43 30a1 1 0 0 1-1-1V2H17.414L6 13.414V29a1 1 0 0 1-2 0V13c0-.266.106-.52.292-.708l12-12C16.48.106 16.734 0 17 0h26a1 1 0 0 1 1 1v28a1 1 0 0 1-1 1z"/>
        <path d="M17 14H5a1 1 0 0 1 0-2h11V1a1 1 0 0 1 2 0v12a1 1 0 0 1-1 1zM43 48H5c-2.756 0-5-2.244-5-5V29.964c0-1.498.468-2.928 1.354-4.138l2.804-4.366a.999.999 0 1 1 1.682 1.082l-2.838 4.416C2.334 27.872 2 28.894 2 29.964V43c0 1.654 1.346 3 3 3h38c1.654 0 3-1.346 3-3V29.816c0-.99-.29-1.95-.84-2.774l-2.992-4.488a.999.999 0 1 1 1.664-1.108l2.992 4.488A6.966 6.966 0 0 1 48 29.816V43c0 2.756-2.244 5-5 5z"/>
        <path d="M33 38H15c-2.756 0-5-2.244-5-5 0-1.654-1.346-3-3-3H2a1 1 0 0 1 0-2h5c2.756 0 5 2.244 5 5 0 1.654 1.346 3 3 3h18c1.654 0 3-1.346 3-3 0-2.756 2.244-5 5-5h5a1 1 0 0 1 0 2h-5c-1.654 0-3 1.346-3 3 0 2.756-2.244 5-5 5z"/>
    </g>
</svg>
