<svg xmlns="http://www.w3.org/2000/svg" width="46" height="48" viewBox="0 0 46 48">
    <path fill="#0766ED" fill-rule="nonzero" d="M5 30h6a1 1 0 0 0 1-1v-4a1 1 0 0 0-1-1H5a1 1 0 0 0-1 1v4a1 1 0 0 0 1 1zm1-4h4v2H6v-2zM5 40h6a1 1 0 0 0 1-1v-4a1 1 0 0 0-1-1H5a1 1 0 0 0-1 1v4a1 1 0 0 0 1 1zm1-4h4v2H6v-2zM5 20h6a1 1 0 0 0 1-1v-4a1 1 0 0 0-1-1H5a1 1 0 0 0-1 1v4a1 1 0 0 0 1 1zm1-4h4v2H6v-2zm29 14h6a1 1 0 0 0 1-1v-4a1 1 0 0 0-1-1h-6a1 1 0 0 0-1 1v4a1 1 0 0 0 1 1zm1-4h4v2h-4v-2zm-1 14h6a1 1 0 0 0 1-1v-4a1 1 0 0 0-1-1h-6a1 1 0 0 0-1 1v4a1 1 0 0 0 1 1zm1-4h4v2h-4v-2zm9-26H32V1a1 1 0 0 0-1-1H15a1 1 0 0 0-1 1v9H1a1 1 0 0 0-1 1v32a1 1 0 0 0 1 1h13v2h-1a1 1 0 0 0 0 2h20a1 1 0 0 0 0-2h-1v-2h13a1 1 0 0 0 1-1V11a1 1 0 0 0-1-1zM14 42H2V12h12v30zm12 4h-6v-8h6v8zm4 0h-2v-9a1 1 0 0 0-1-1h-8a1 1 0 0 0-1 1v9h-2V2h14v44zm14-4H32V12h12v30zM19 22h8a1 1 0 0 0 1-1v-8a1 1 0 0 0-1-1h-8a1 1 0 0 0-1 1v8a1 1 0 0 0 1 1zm1-8h6v6h-6v-6zm1-6h1v1a1 1 0 0 0 2 0V8h1a1 1 0 0 0 0-2h-1V5a1 1 0 0 0-2 0v1h-1a1 1 0 0 0 0 2zm14 12h6a1 1 0 0 0 1-1v-4a1 1 0 0 0-1-1h-6a1 1 0 0 0-1 1v4a1 1 0 0 0 1 1zm1-4h4v2h-4v-2zM19 34h8a1 1 0 0 0 1-1v-8a1 1 0 0 0-1-1h-8a1 1 0 0 0-1 1v8a1 1 0 0 0 1 1zm1-8h6v6h-6v-6z"/>
</svg>
