<svg xmlns="http://www.w3.org/2000/svg" width="48" height="48" viewBox="0 0 48 48">
    <path fill="#0766ED" fill-rule="nonzero" d="M31.074 36.324a1 1 0 0 0-1.31-.24A12.96 12.96 0 0 1 23 38c-7.168 0-13-5.832-13-13 0-6.416 4.79-11.94 11.142-12.85.492-.072.858-.492.858-.99V3a1 1 0 0 0-1-1C9.42 2 0 12.318 0 25s10.318 23 23 23c5.674 0 8.744-1.028 12.634-4.228a1 1 0 0 0 .154-1.386l-4.714-6.062zM23 46C11.42 46 2 36.58 2 25 2 13.792 9.986 4.606 20 4.028v6.29C13.102 11.724 8 17.888 8 25c0 8.272 6.728 15 15 15 2.448 0 4.86-.608 7.028-1.762l3.576 4.596C30.446 45.244 27.812 46 23 46zm2-36c7.168 0 13 5.832 13 13a1 1 0 0 0 1 1h8a1 1 0 0 0 1-1C48 10.318 37.682 0 25 0a1 1 0 0 0-1 1v8a1 1 0 0 0 1 1zm1-7.976c10.786.508 19.468 9.19 19.976 19.976h-6.01C39.472 14.524 33.474 8.528 26 8.034v-6.01zM47 26h-8.158c-.498 0-.92.366-.992.858a12.962 12.962 0 0 1-4.472 8.074.999.999 0 0 0-.132 1.392l5.976 7.398c.174.218.43.35.708.37a1.006 1.006 0 0 0 .752-.266A23.09 23.09 0 0 0 48 27a1 1 0 0 0-1-1zm-6.914 15.608l-4.69-5.806A14.964 14.964 0 0 0 39.684 28h6.292a21.1 21.1 0 0 1-5.89 13.608z"/>
</svg>
