<svg xmlns="http://www.w3.org/2000/svg" width="48" height="48" viewBox="0 0 48 48">
    <g fill="#0766ED" fill-rule="nonzero">
        <path d="M47 44H21a1 1 0 0 1 0-2h25V17.414L34.586 6H27a1 1 0 0 1 0-2h8c.266 0 .52.106.708.292l12 12c.186.188.292.442.292.708v26a1 1 0 0 1-1 1z"/>
        <path d="M47 18H35a1 1 0 0 1-1-1V5a1 1 0 0 1 2 0v11h11a1 1 0 0 1 0 2zM41 26H25a1 1 0 0 1 0-2h16a1 1 0 0 1 0 2zM41 32H25a1 1 0 0 1 0-2h16a1 1 0 0 1 0 2zM41 38H25a1 1 0 0 1 0-2h16a1 1 0 0 1 0 2z"/>
        <path d="M19 48c-1.446 0-2.866-.258-4.222-.764L3.244 42.908A5.016 5.016 0 0 1 0 38.228V9.976a4.97 4.97 0 0 1 3.564-4.79L16.882 1.19A28.332 28.332 0 0 1 25 0c1.654 0 3 1.346 3 3v10.558a2.998 2.998 0 0 1-2.05 2.846l-3.266 1.088a.998.998 0 0 0-.684.95V45c0 1.654-1.346 3-3 3zM17.456 3.108L4.138 7.102A2.984 2.984 0 0 0 2 9.976v28.252c0 1.244.782 2.374 1.946 2.806l11.534 4.328a9.981 9.981 0 0 0 3.518.638C19.55 46 20 45.55 20 45V18.442c0-1.292.824-2.436 2.05-2.846l3.266-1.088a.998.998 0 0 0 .684-.95V3a1 1 0 0 0-1-1c-2.556 0-5.094.372-7.544 1.108z"/>
    </g>
</svg>
