<svg xmlns="http://www.w3.org/2000/svg" width="44" height="60" viewBox="0 0 44 60">
    <g fill="#0766ED" fill-rule="nonzero">
        <path d="M39 60H5c-2.758 0-5-2.244-5-5V31c0-2.756 2.242-5 5-5h34c2.758 0 5 2.244 5 5v24c0 2.756-2.242 5-5 5zM5 28c-1.654 0-3 1.346-3 3v24c0 1.654 1.346 3 3 3h34c1.654 0 3-1.346 3-3V31c0-1.654-1.346-3-3-3H5z"/>
        <path d="M37 28H7a1 1 0 0 1-1-1V16C6 7.178 13.178 0 22 0s16 7.178 16 16v11a1 1 0 0 1-1 1zM8 26h28V16c0-7.72-6.282-14-14-14S8 8.28 8 16v10zM22 54a1 1 0 0 1-1-1v-8a1 1 0 0 1 2 0v8a1 1 0 0 1-1 1z"/>
        <path d="M22 46c-3.308 0-6-2.692-6-6s2.692-6 6-6 6 2.692 6 6-2.692 6-6 6zm0-10c-2.206 0-4 1.794-4 4s1.794 4 4 4 4-1.794 4-4-1.794-4-4-4z"/>
    </g>
</svg>
