<svg xmlns="http://www.w3.org/2000/svg" width="46" height="48" viewBox="0 0 46 48">
    <path fill="#FFF" fill-rule="nonzero" d="M29.906 4.628c-.018-.046-.03-.09-.054-.132-.01-.016-.01-.034-.02-.05a.985.985 0 0 0-.242-.24c-.014-.01-.02-.028-.034-.038l-6-4a1 1 0 0 0-1.11 0l-6 4c-.008.006-.01.016-.018.02a.996.996 0 0 0-.26.258c-.01.016-.012.034-.022.052-.024.04-.034.084-.052.13a.989.989 0 0 0-.076.3C16.016 4.952 16 4.974 16 5v38c0 .334.168.646.446.832l6 4c.018.012.04.008.058.018.148.086.312.15.496.15a.982.982 0 0 0 .496-.15c.018-.01.04-.006.058-.018l6-4c.278-.186.446-.498.446-.832V5c0-.026-.016-.048-.018-.072a.989.989 0 0 0-.076-.3zM22 45.134l-4-2.668V6.868l4 2.666v35.6zm1-37.336L18.804 5 23 2.202 27.196 5 23 7.798zm5 34.668l-4 2.668v-35.6l4-2.666v35.598zM13.906 22.628c-.018-.046-.03-.09-.054-.132-.01-.016-.01-.034-.02-.05a1.007 1.007 0 0 0-.248-.248c-.012-.008-.016-.022-.028-.03l-6-4a1 1 0 0 0-1.11 0l-6 4c-.008.006-.01.016-.018.02a.996.996 0 0 0-.26.258c-.01.016-.012.034-.02.052-.024.042-.034.086-.054.13a.991.991 0 0 0-.076.298C.016 22.952 0 22.974 0 23v20c0 .334.168.646.446.832l6 4c.018.012.04.008.058.018.148.086.312.15.496.15a.982.982 0 0 0 .496-.15c.018-.01.04-.006.058-.018l6-4c.278-.186.446-.498.446-.832V23c0-.026-.016-.048-.018-.072a.989.989 0 0 0-.076-.3zM6 45.132l-4-2.666V24.868l4 2.666v17.598zm1-19.334L2.804 23 7 20.202 11.198 23 7 25.798zm5 16.666l-4 2.668V27.536l4-2.666v17.594zm33.982-27.536a1.004 1.004 0 0 0-.076-.3c-.018-.046-.03-.09-.054-.132-.01-.016-.01-.034-.02-.05a1.026 1.026 0 0 0-.246-.246c-.012-.008-.016-.024-.03-.032l-6-4a1 1 0 0 0-1.11 0l-6 4c-.008.006-.01.016-.018.02a.996.996 0 0 0-.26.258c-.01.016-.012.034-.02.052-.024.042-.034.086-.054.13a.991.991 0 0 0-.076.298c-.002.026-.018.048-.018.074v28c0 .334.168.646.446.832l6 4c.018.012.04.008.058.018.148.086.312.15.496.15a.982.982 0 0 0 .496-.15c.018-.01.04-.006.058-.018l6-4c.278-.186.446-.498.446-.832V15c0-.026-.016-.048-.018-.072zM38 45.134l-4-2.668V16.868l4 2.666v25.6zm1-27.336L34.804 15 39 12.202 43.196 15 39 17.798zm5 24.668l-4 2.668v-25.6l4-2.666v25.598z"/>
</svg>
