<svg xmlns="http://www.w3.org/2000/svg" width="46" height="48" viewBox="0 0 46 48">
    <g fill="#FFF" fill-rule="nonzero">
        <path d="M11 48H3c-1.654 0-3-1.346-3-3V3c0-1.654 1.346-3 3-3h8c1.654 0 3 1.346 3 3v42c0 1.654-1.346 3-3 3zM3 2a1 1 0 0 0-1 1v42a1 1 0 0 0 1 1h8a1 1 0 0 0 1-1V3a1 1 0 0 0-1-1H3z"/>
        <path d="M7 42c-1.654 0-3-1.346-3-3s1.346-3 3-3 3 1.346 3 3-1.346 3-3 3zm0-4a1 1 0 1 0 0 2 1 1 0 0 0 0-2zM9 14H5a1 1 0 0 1 0-2h4a1 1 0 0 1 0 2zM9 10H5a1 1 0 0 1 0-2h4a1 1 0 0 1 0 2zM9 6H5a1 1 0 0 1 0-2h4a1 1 0 0 1 0 2zM27 48h-8c-1.654 0-3-1.346-3-3V3c0-1.654 1.346-3 3-3h8c1.654 0 3 1.346 3 3v42c0 1.654-1.346 3-3 3zM19 2a1 1 0 0 0-1 1v42a1 1 0 0 0 1 1h8a1 1 0 0 0 1-1V3a1 1 0 0 0-1-1h-8z"/>
        <path d="M23 42c-1.654 0-3-1.346-3-3s1.346-3 3-3 3 1.346 3 3-1.346 3-3 3zm0-4a1 1 0 1 0 0 2 1 1 0 0 0 0-2zM25 14h-4a1 1 0 0 1 0-2h4a1 1 0 0 1 0 2zM25 10h-4a1 1 0 0 1 0-2h4a1 1 0 0 1 0 2zM25 6h-4a1 1 0 0 1 0-2h4a1 1 0 0 1 0 2zM43 48h-8c-1.654 0-3-1.346-3-3V3c0-1.654 1.346-3 3-3h8c1.654 0 3 1.346 3 3v42c0 1.654-1.346 3-3 3zM35 2a1 1 0 0 0-1 1v42a1 1 0 0 0 1 1h8a1 1 0 0 0 1-1V3a1 1 0 0 0-1-1h-8z"/>
        <path d="M39 42c-1.654 0-3-1.346-3-3s1.346-3 3-3 3 1.346 3 3-1.346 3-3 3zm0-4a1 1 0 1 0 0 2 1 1 0 0 0 0-2zM41 14h-4a1 1 0 0 1 0-2h4a1 1 0 0 1 0 2zM41 10h-4a1 1 0 0 1 0-2h4a1 1 0 0 1 0 2zM41 6h-4a1 1 0 0 1 0-2h4a1 1 0 0 1 0 2z"/>
    </g>
</svg>
