<svg xmlns="http://www.w3.org/2000/svg" width="48" height="44" viewBox="0 0 48 44">
    <g fill="#FFF" fill-rule="nonzero">
        <path d="M37 34h-6a1 1 0 0 1 0-2h6c4.962 0 9-4.038 9-9s-4.038-9-9-9c-.492-.046-1.076-.342-1.146-.844C34.948 6.796 29.422 2 23 2c-7.168 0-13 5.832-13 13 0 .56.048 1.156.152 1.876a1 1 0 0 1-.24.804 1.078 1.078 0 0 1-.768.338c-.044 0-.166-.012-.21-.02C5.14 18 2 21.14 2 25s3.14 7 7 7a1 1 0 0 1 0 2c-4.962 0-9-4.038-9-9 0-4.64 3.53-8.47 8.044-8.95C8.014 15.684 8 15.338 8 15 8 6.728 14.728 0 23 0c7.13 0 13.302 5.122 14.692 12.046C43.516 12.464 48 17.218 48 23c0 6.066-4.934 11-11 11z"/>
        <path d="M20 40c-4.412 0-8-3.588-8-8s3.588-8 8-8 8 3.588 8 8-3.588 8-8 8zm0-14c-3.308 0-6 2.692-6 6s2.692 6 6 6 6-2.692 6-6-2.692-6-6-6z"/>
        <path d="M31 44c-.256 0-.512-.098-.708-.292l-6-6a1 1 0 0 1 1.414-1.414l6 6A1 1 0 0 1 31 44z"/>
    </g>
</svg>
