<svg xmlns="http://www.w3.org/2000/svg" width="48" height="48" viewBox="0 0 48 48">
    <path fill="#FFF" fill-rule="nonzero" d="M46.876 41.468L31.4 25.992A16.866 16.866 0 0 0 34 17c0-9.374-7.624-17-17-17C7.624 0 0 7.626 0 17c0 9.374 7.626 17 17 17a16.89 16.89 0 0 0 8.988-2.596l15.476 15.474A3.859 3.859 0 0 0 44.172 48 3.83 3.83 0 0 0 48 44.176a3.864 3.864 0 0 0-1.124-2.708zM2 17C2 8.728 8.73 2 17 2s15 6.728 15 15-6.728 15-15 15S2 25.272 2 17zm42.172 29.002a1.84 1.84 0 0 1-1.292-.536L27.648 30.234a16.972 16.972 0 0 0 2.584-2.584l15.232 15.23c.338.342.536.814.536 1.294a1.831 1.831 0 0 1-1.828 1.828z"/>
</svg>
