<svg xmlns="http://www.w3.org/2000/svg" width="44" height="48" viewBox="0 0 44 48">
    <path fill="#FFF" fill-rule="nonzero" d="M44 13.002c0-.032-.022-.06-.024-.092-.008-.094-.014-.188-.052-.28-.01-.024-.03-.04-.042-.064a1.02 1.02 0 0 0-.09-.138.98.98 0 0 0-.236-.236c-.024-.016-.034-.046-.06-.06l-21-12a.998.998 0 0 0-.992 0l-21 12c-.024.016-.034.044-.058.06a.966.966 0 0 0-.248.246c-.028.04-.056.076-.078.12-.014.026-.036.044-.048.072a.988.988 0 0 0-.062.336c0 .012-.01.024-.01.036v22c0 .02.014.038.016.058.008.14.03.28.098.408.004.008.012.01.016.018.026.046.072.076.106.118.074.092.146.182.244.244.01.006.014.018.022.022l21 12a1.009 1.009 0 0 0 .994 0l21-12c.01-.006.014-.018.024-.024.092-.056.156-.14.226-.224.04-.048.094-.084.124-.138l.014-.016c.054-.104.064-.218.08-.33.006-.046.036-.088.036-.136v-22zM2 14.478l7.572 3.03L2 31.14V14.478zm20 20.448l-9.308-16.924h18.616L22 34.926zm-9.1-18.924L22 2.766l9.1 13.236H12.9zm7.314 19.826L2.616 34.152l8.38-15.084 9.218 16.76zm12.792-16.754l8.378 15.08-17.604 1.692 9.226-16.772zm.362-3.298L25.3 4.04l15.404 8.802-7.336 2.934zm-22.74 0l-7.334-2.934 15.4-8.8-8.066 11.734zM21 37.894v7.384L5.52 36.434 21 37.894zm2 .018l15.472-1.474L23 45.278v-7.366zm11.424-20.404L42 14.478v16.666l-7.576-13.636z"/>
</svg>
